<svg xmlns="http://www.w3.org/2000/svg" width="256" height="256"><path fill-opacity=".016" d="M0 128.004v128.004l128.25-.254 128.25-.254.254-127.75L257.008 0H0v128.004m.485.496c0 70.4.119 99.053.265 63.672.146-35.38.146-92.98 0-128C.604 29.153.485 58.1.485 128.5" fill="#1976D2" fill-rule="evenodd"/><path fill-opacity=".259" d="M124.5 1.407C110.341 4.156 94.707 10.8 80.769 19.992 62.454 32.07 42.602 55.255 39.45 68.25c-1.108 4.568.845 3.09 4.55-3.445C58.496 39.24 82.955 18.638 110 9.214c11.809-4.114 21.034-5.567 31.583-4.972 10.772.607 17.348 2.7 23.835 7.586 2.681 2.02 5.463 4.106 6.181 4.637 1.825 1.348 3.048-.21 1.775-2.263-2.025-3.264-10.918-9.198-16.874-11.258-7.722-2.671-22.503-3.381-32-1.537M67.746 16.086C49.162 20.466 31.365 41.321 22.164 69.5c-6.397 19.594-8.109 44.757-4.289 63.061C19.715 141.373 23.18 150 24.881 150c.463 0-.492-5.287-2.121-11.75-2.652-10.521-2.967-13.423-3.01-27.75-.058-19.389 2.152-31.559 8.655-47.646 10.431-25.806 27.207-42.128 44.931-43.715 5.698-.51 7.208-.993 7.476-2.389.283-1.482-.405-1.735-4.489-1.65-2.653.056-6.512.499-8.577.986m60.754 1.023c-8.407 1.212-18.821 4.511-21.63 6.85-3.042 2.534-2.914 2.526 9.316-.57 13.678-3.463 36.782-4.385 50.45-2.014 31.91 5.537 58.635 22.158 67.367 41.899 1.088 2.459 2.32 7.53 2.738 11.267.792 7.092 2.696 9.549 3.847 4.964.981-3.906-1.166-13.132-4.772-20.505-8.005-16.371-31.549-32.336-57.316-38.867-15.443-3.914-35.441-5.123-50-3.024m-6.792 12.981c-9.587 5.059-11.357 18.066-3.484 25.604 6.557 6.278 16.043 6.239 22.376-.094 12.921-12.921-2.723-34.044-18.892-25.51m62.76 9.858c.349.566 2.75 2.239 5.334 3.718 32.875 18.822 56.854 52.493 61.331 86.119 2.11 15.847-1.357 29.923-9.626 39.075-3.134 3.47-3.459 4.221-2.055 4.76 3.837 1.472 12.225-11.041 14.575-21.743 1.571-7.158.772-26.213-1.443-34.377-8.272-30.495-32.881-62.152-58.084-74.721-5.851-2.917-10.98-4.365-10.032-2.831m-40.153 15.925c-7.546 9.091-20.875 9.711-28.778 1.338-2.762-2.927-3.035-3.005-5.703-1.625-5.889 3.045-13.72 13.279-13.812 18.05-.012.626 2.116 1.455 4.728 1.843 2.612.388 8.082 2.242 12.155 4.12l7.405 3.414 6.56-2.624c7.699-3.08 14.251-2.898 21.078.584 5.025 2.564 6.629 5.84 8.125 16.596.993 7.141.201 17.948-1.674 22.833-.937 2.443 2.003 1.972 5.37-.861 3.584-3.016 6.936-11.478 8.372-21.134 2.093-14.068-3.356-30.325-13.679-40.814-3.027-3.076-5.832-5.585-6.233-5.575-.401.01-2.162 1.745-3.914 3.855M84 78.704c-6.204.681-16.464 4.495-21.821 8.11-1.04.702-.668 1.922 1.75 5.735 6.325 9.973 3.056 22.354-7.297 27.638-3.573 1.824-3.826 2.23-3.321 5.342.854 5.261 3.543 10.099 8.039 14.463 2.271 2.204 4.359 4.008 4.64 4.007.28-.001 1.777-2.257 3.325-5.014 1.549-2.756 5.16-7.593 8.026-10.749 5.193-5.717 5.208-5.751 4.305-10.284-1.299-6.521 1.171-14.327 6.42-20.289C92.049 93.137 92.337 93 97.875 93c9.031 0 16.724 2.4 31.375 9.788 1.499.756.689-4.36-1.125-7.112-2.708-4.107-12.768-11.352-19.125-13.773-5.403-2.059-15.564-3.998-19.5-3.723-1.1.077-3.575.313-5.5.524m87.5 15.652v13.346l3.673 4.066c7.41 8.205 8.836 21.618 2.89 27.173-5.967 5.575-20.149 11.023-28.754 11.047-5.396.015-6.042 1.217-2.332 4.339 2.194 1.846 4.677 2.691 9.399 3.197 20.424 2.187 42.182-10.102 50.55-28.549 2.727-6.011 2.617-6.65-1.263-7.378-5.49-1.03-11.4-6.883-13.199-13.073-1.666-5.729-1.326-8.736 1.66-14.7l1.841-3.676-3.233-2.728c-4.844-4.09-10.644-6.374-16.232-6.393l-5-.017v13.346M10.58 85.088C2.478 94.715-.425 104.706.287 120.5c.828 18.376 7.007 35.698 19.347 54.244 12.455 18.72 35.543 38.491 48.616 41.633 4.946 1.189 2.838-.772-7.93-7.377C19.878 184.195-5.434 132.66 6.409 99.239c1.591-4.49 6.333-11.95 9.007-14.169 2.135-1.772 1.997-3.07-.327-3.07-1.051 0-3.08 1.389-4.509 3.088m30.479 4.097C34.58 92.562 32.5 95.919 32.5 103c0 6.584 1.799 9.864 7.592 13.839 2.81 1.928 4.381 2.27 8.953 1.95 6.392-.446 9.841-2.567 12.887-7.925 7.77-13.663-6.94-28.94-20.873-21.679m162.346-.281c-8.018 3.641-11.285 13.187-7.217 21.088 3.164 6.146 7.711 9.008 14.312 9.008 6.601 0 11.148-2.862 14.312-9.008 5.316-10.325-2.557-22.948-14.312-22.948-1.65 0-4.843.837-7.095 1.86m26.626 17.266c-.017.918 1.184 6.543 2.668 12.5 2.384 9.564 2.7 12.758 2.705 27.33.004 9.596-.528 19.01-1.27 22.5-8.433 39.671-28.837 66.248-52.482 68.361-5.407.483-7.152 1.005-7.152 2.139 0 1.192 1.378 1.484 6.708 1.423 15.893-.183 33.986-15.058 45.138-37.11 9.853-19.48 14.991-46.713 12.733-67.475-1.471-13.516-3.657-22.612-6.578-27.368-1.403-2.285-2.452-3.261-2.47-2.3m-138.98 16.973c-16.442 9.428-26.531 29.327-24.448 48.219.372 3.376 1.047 7.135 1.499 8.353.799 2.152.928 2.17 4.595.638 10.776-4.502 23.487 3.306 25.706 15.79.562 3.162 1.094 3.728 4.023 4.277 5.759 1.08 16.405-2.102 19.497-5.828 1.079-1.299.578-2.34-3.214-6.675-2.471-2.824-5.675-7.473-7.121-10.33-2.554-5.049-2.796-5.23-8.572-6.423-7.517-1.552-13.617-6.07-17.226-12.757-2.623-4.86-2.664-5.175-1.27-9.808 2.247-7.466 7.324-15.571 13.67-21.824 3.195-3.149 5.81-5.961 5.81-6.25 0-.289-1.687-.521-3.75-.516-2.357.006-5.774 1.17-9.199 3.134m21.046 28.241c-4.476 5.392.165 22.566 9.121 33.754 7.483 9.347 23.721 17.797 34.282 17.84l5 .021.07-4.855c.169-11.752 11.457-20.732 22.835-18.165 3.777.852 3.784.847 5.791-3.69 1.577-3.565 1.93-6.122 1.639-11.884-.204-4.037-.883-7.853-1.509-8.479-.851-.851-2.739-.502-7.482 1.384-3.489 1.388-9.044 3.016-12.344 3.618-3.3.602-6.154 1.55-6.341 2.107-.188.556-1.763 3.126-3.5 5.709-4.156 6.181-10.772 10.206-18.003 10.952l-5.622.58-7.866-7.888c-5.784-5.8-8.794-9.814-11.372-15.165-2.88-5.978-3.719-7.021-4.699-5.839m-96.666 23.728c-1.274 2.061-.482 10.792 1.486 16.393 5.388 15.328 20.6 28.989 42.781 38.418 8.152 3.465 12.737 4.849 27.302 8.24 8.44 1.965 37.8 1.674 46.318-.459 7.941-1.988 16.682-5.565 16.682-6.827 0-1.156.594-1.247-11.186 1.727-14.159 3.575-35.068 4.368-49.89 1.893-39.417-6.582-68.661-28.889-70.669-53.908-.506-6.299-1.329-7.896-2.824-5.477m156.843 8.981c-10.034 4.967-12.02 18.532-3.773 25.774 7.385 6.484 16.501 6.194 22.751-.725 6.034-6.678 5.833-15.774-.483-21.866-5.87-5.662-11.521-6.635-18.495-3.183m-99.774-.15c-3.375 1.377-7.444 6.137-8.63 10.098-4.02 13.416 10.74 24.802 23.126 17.841 13.871-7.796 8.262-29.025-7.614-28.819-2.685.035-5.782.431-6.882.88m141.002 3.577c-9.559 15.437-15.284 22.947-23.642 31.014C168.139 239.497 141.1 252 117.484 252c-13.137 0-21.674-2.746-30.307-9.747-3.139-2.546-4.624-3.206-5.421-2.409-1.601 1.601 5.367 7.826 12.575 11.235 26.097 12.342 67.279-.279 98.022-30.041 13.258-12.835 24.988-30.516 23.401-35.276-.229-.686-1.216.085-2.252 1.758" fill="#1976D2" fill-rule="evenodd"/><path fill-opacity=".425" d="M119.5 2.833c-15.159 3.854-32.019 12.104-45 22.021-9.217 7.041-21.543 19.852-26.906 27.964-4.546 6.876-9.193 16.917-8.26 17.849.23.23 3.138-3.988 6.461-9.374 10.482-16.99 22.422-29.234 39.181-40.179 30.911-20.186 66.836-23.361 83.273-7.36 2.636 2.566 4.062 3.335 4.806 2.591 1.631-1.631-8.143-9.841-14.853-12.477C150.298.764 129.793.215 119.5 2.833m-50.183 13.19C55.128 18.905 38.642 33.75 29.572 51.81c-4.243 8.45-8.236 20.087-10.739 31.304-2.975 13.327-3.27 37.969-.6 50.071 1.59 7.204 5.543 17.372 6.415 16.5.216-.215-.773-5.07-2.197-10.788-9.177-36.855.81-81.261 23.726-105.491C54.957 24.123 67.275 18 77.172 18c2.748 0 3.867-.39 3.584-1.25-.503-1.531-5.818-1.869-11.439-.727m62.737 1.032c-9.58 1.196-18.101 3.394-22.816 5.883-4.787 2.527-2.74 2.536 7.209.029 27.515-6.932 57.69-3.885 83.053 8.387 22.221 10.752 35.701 26.003 37.324 42.227.442 4.414 1.159 6.917 2.07 7.219 1.135.377 1.298-.866.88-6.713-.787-10.998-5.526-19.748-16.103-29.73-9.691-9.145-19.526-15.05-33.315-19.998-18.141-6.512-41.362-9.421-58.302-7.304m-10.813 13.94c-10.13 6.176-9.708 21.6.743 27.153 13.368 7.104 28.268-7.796 21.164-21.164-4.058-7.638-14.515-10.497-21.907-5.989M188 42.184c20.232 12.426 33.907 24.623 43.815 39.077 7.386 10.775 14.786 26.744 17.795 38.402 2.18 8.443 2.478 11.395 2.106 20.837-.516 13.082-2.781 20.02-8.749 26.801-6.19 7.032-5.114 9.515 1.278 2.949 15.791-16.221 13.702-51.543-4.884-82.563-11.322-18.897-28.732-36.203-45.065-44.795-6.709-3.528-11.825-4.105-6.296-.708m-42.807 13.401c-2.471 3.814-10.752 8.392-15.193 8.4-4.82.008-10.177-2.15-14.07-5.667-3.901-3.524-3.947-3.537-6.679-1.804-4.579 2.905-8.33 6.784-10.343 10.696-2.81 5.464-2.48 6.565 2.342 7.811 7.386 1.908 8.129 2.179 13.851 5.049l5.601 2.809 4.819-2.44c6.733-3.408 15.227-3.365 22.206.112 4.404 2.195 5.354 3.209 6.795 7.25 2.339 6.566 2.988 22.309 1.191 28.949-.781 2.888-1.282 5.25-1.114 5.25.169 0 1.464-.527 2.879-1.172 3.344-1.524 5.832-5.712 8.424-14.183 5.174-16.907.788-35.305-11.607-48.693-3.031-3.273-5.799-5.946-6.153-5.94-.353.007-1.68 1.615-2.949 3.573M79 80.473c-6.716 1.547-8.318 2.164-13.805 5.312l-4.305 2.469 2.007 2.137c8.004 8.519 6.155 21.693-4.107 29.264-1.748 1.29-2.629 2.345-1.958 2.345 2.192 0 9.88-8.598 11.162-12.483 1.577-4.777.674-13.108-1.788-16.494-3.625-4.985-3.647-4.924 2.973-7.96 3.477-1.593 7.887-3.218 9.801-3.61 3.006-.616 3.313-.511 2.249.771C79.867 83.865 80.636 93 82.136 93c1.204 0 1.087 4.744-.136 5.5-.55.34-.986 1.154-.97 1.809.017.655.489.404 1.05-.559.561-.963 1.432-1.75 1.936-1.75s.057 1.463-.995 3.25c-2.834 4.821-4.128 11.853-3.147 17.106.807 4.319.69 4.673-2.598 7.834-1.894 1.82-5.3 6.121-7.57 9.557l-4.127 6.248-3.727-3.639c-2.05-2.002-4.266-4.94-4.924-6.53-.658-1.59-1.393-2.694-1.632-2.455-.24.239.492 2.253 1.625 4.474 2.131 4.177 9.157 10.411 9.751 8.652.822-2.431 6.457-10.038 10.769-14.538 3.677-3.836 4.56-5.38 4.032-7.045-.373-1.173-.648-4.579-.612-7.57.077-6.464 3.662-13.84 9.009-18.535 3.415-2.998 3.614-3.041 11.016-2.37 8.412.762 17.403 3.473 22.943 6.919a374.014 374.014 0 0 0 4.814 2.955c.831.489.917-.349.314-3.07-1.07-4.834-6.974-10.163-16.358-14.764C101.518 79.045 90.76 77.762 79 80.473m93.685 7.777c.293 3.987.075 9.717-.483 12.733-1.006 5.439-.986 5.514 2.492 9.363 5.087 5.631 7.258 11.094 7.284 18.327.026 7.41-2.104 10.536-10.428 15.298-5.508 3.152-18.633 7.029-23.793 7.029-3.811 0-3.212 1.954 1.303 4.248 7.627 3.877 26.953 1.432 37.563-4.751 7.025-4.095 15.613-13.281 19.285-20.628l3.174-6.353-2.291-.834c-9.791-3.566-14.859-9.457-15.577-18.109-.358-4.319.011-6.392 1.721-9.672l2.176-4.176-2.74-2.859C189.209 84.565 180.469 81 175.54 81h-3.386l.531 7.25M10.502 86.13C.184 97.55-2.505 116.641 3.124 138.5c2.755 10.7 12.318 30.23 19.607 40.04 11.514 15.499 27.145 29.309 39.655 35.036 8.505 3.894 8.776 2.429.464-2.511-24.605-14.625-43.841-37.277-53.456-62.949-9.657-25.785-8.199-47.364 4.123-61.003C16.595 83.705 17.073 82 14.95 82c-.395 0-2.396 1.858-4.448 4.13m29.739 3.806c-4.862 3.052-7.26 7.639-7.09 13.564l.143 5 .634-5.5c.923-8.014 3.6-11.666 9.675-13.204 1.866-.472 2.087-.123 1.958 3.086-.081 1.99.266 4.181.769 4.868.503.688.619 1.25.257 1.25-.361 0-.189.875.383 1.944.572 1.069 1.112 3.769 1.199 6 .087 2.231.584 4.056 1.103 4.056.52 0 .662 1.125.317 2.5-.487 1.94-.231 2.527 1.142 2.618.973.065.419.429-1.231.808-4.458 1.025-8.604-.462-12.25-4.392-1.788-1.928-3.25-3.096-3.25-2.596 0 .499 1.374 2.282 3.053 3.961 3.476 3.476 9.555 5.474 13.66 4.489 8.401-2.016 12.277-6.823 12.283-15.234.007-9.256-4.733-14.321-13.951-14.91-4.289-.274-6.283.109-8.804 1.692m162 .059c-9.694 5.91-9.677 19.183.034 26.377 3.831 2.838 12.605 2.855 16.388.03 6.777-5.06 9.148-13.624 5.642-20.382-3.943-7.602-14.672-10.532-22.064-6.025m9.509.252c1.972.632 3.25 1.706 3.25 2.731 0 .929 1.8 3.639 4 6.022 2.423 2.624 4.025 5.351 4.063 6.916l.064 2.584.956-2.389c1.263-3.157.188-8.497-2.364-11.741-2.302-2.927-7.483-5.422-10.937-5.268-1.857.083-1.677.296.968 1.145m18.654 17.503c3.427 11.132 4.849 20.191 5.316 33.88.623 18.234-.986 29.492-6.569 45.977-5.212 15.388-10.983 25.169-20.707 35.094-9.617 9.816-17.376 13.994-27.793 14.967-3.658.342-6.651.998-6.651 1.458 0 1.64 4.929 2.031 10.668.844 20.165-4.169 38.202-23.984 47.76-52.47 4.289-12.78 5.731-21.044 6.303-36.113.621-16.365-1.362-31.522-5.251-40.137-2.252-4.99-4.226-7.236-3.076-3.5M53 123.059c0 .582.45.781 1 .441s1-.816 1-1.059-.45-.441-1-.441-1 .477-1 1.059m1.079 3.524c.048 1.165.285 1.402.604.605.289-.722.253-1.585-.079-1.917-.332-.332-.568.258-.525 1.312m56.983 28.155c-.831 3.008-.622 5.256 1.069 11.524 4.803 17.798 19.693 31.885 37.668 35.633 9.444 1.969 10.198 1.737 10.223-3.145.062-11.923 10.205-20.831 22.114-19.42 4.584.543 4.946.413 6.334-2.272 2.031-3.928 2.895-10.144 2.121-15.262-1.051-6.952-1.471-7.181-7.926-4.327-3.128 1.384-8.799 3.03-12.602 3.658-5.8.958-7.002 1.495-7.465 3.341-.885 3.523-8.246 11.183-12.925 13.448-2.447 1.185-6.287 2.084-8.899 2.084-3.843 0-5.414-.648-9.606-3.962-5.63-4.45-13.122-14.379-15.685-20.788-.935-2.338-2.08-4.25-2.545-4.25-.464 0-1.308 1.682-1.876 3.738m-95.423 19.956c-1.287 1.288-.587 9.265 1.372 15.605 6.706 21.713 34.091 40.326 69.516 47.25 11.448 2.238 33.843 2.3 44.638.125 7.409-1.494 18.35-5.492 17.461-6.382-.24-.239-5.541.691-11.781 2.067-14.907 3.287-25.953 4.046-39.105 2.684-43.141-4.464-77.356-27.93-79.49-54.516-.506-6.311-1.232-8.211-2.611-6.833m155.602 10.301c-10.123 6.171-9.67 22.004.779 27.253 4.514 2.268 10.616 2.228 14.996-.1 10.451-5.553 10.873-20.977.743-27.153-4.36-2.659-12.158-2.659-16.518 0m39.786 7.108c-10.293 17.399-22.696 30.574-39.002 41.429-32.021 21.318-67.069 25.071-84.771 9.078-4.326-3.908-5.254-4.315-5.254-2.306 0 1.898 5.841 7.182 10.709 9.689 13.594 6.998 35.464 6.746 55.073-.636 28.024-10.548 55.53-34.323 65.89-56.951 3.833-8.372 2.236-8.555-2.645-.303" fill="#1976D2" fill-rule="evenodd"/><path fill-opacity=".429" d="M127.5 1.664c-6.671.81-19.513 4.849-28.094 8.836-24.415 11.344-49.168 34.144-57.488 52.952-3.204 7.245-1.663 6.421 3.124-1.669 5.514-9.32 8.844-13.674 16.921-22.12 16.159-16.899 37.286-29.407 57.742-34.186 20.574-4.807 38.135-1.94 49.165 8.025 2.709 2.447 4.13 3.21 4.13 2.218 0-2.191-6.593-7.644-12.528-10.361C152.055 1.505 139.964.15 127.5 1.664M67.383 16.949C56.954 19.438 44.63 29.255 36.329 41.682 25.812 57.426 19.55 75.619 16.905 98.113c-1.833 15.588.498 35.56 5.501 47.137.891 2.063 1.807 3.75 2.035 3.75.228 0-.65-3.977-1.951-8.838-3.713-13.876-4.957-27.994-3.605-40.91 1.109-10.589 4.339-25.196 7.548-34.138 2.996-8.346 10.713-21.702 16.378-28.344 10.118-11.863 19.634-17.553 30.966-18.515 3.452-.293 6.516-.921 6.809-1.394.636-1.029-8.788-.966-13.203.088m62.117.692c-12.522 2.557-23.322 5.87-22.34 6.852.206.207 3.517-.455 7.358-1.471 12.796-3.384 21.754-4.307 36.185-3.728 20.708.83 35.457 4.627 52.603 13.541 20.202 10.503 32.66 25.614 34.298 41.6.4 3.91 1.064 6.27 1.66 5.902 1.99-1.23-.138-12.609-3.723-19.907C225.2 39.376 200.062 24.207 166 18.467c-7.697-1.297-31.553-1.837-36.5-.826m-1.738 12.066c1.244.239 3.044.23 4-.02s-.062-.446-2.262-.435c-2.2.011-2.982.216-1.738.455m8.738 2.135c4.093 2.502 5.386 4.258 6.078 8.253.431 2.485.314 3.01-.434 1.943-.862-1.231-1.748-.943-5.584 1.812-2.508 1.801-4.56 2.998-4.56 2.661 0-.337-1.463.445-3.25 1.739-1.787 1.293-4.452 2.948-5.92 3.677-1.76.874-2.469 1.85-2.08 2.863.978 2.548-1.693.35-3.827-3.149-1.054-1.728-1.917-2.594-1.919-1.926-.009 2.678 6.051 8.041 10.491 9.284 15.203 4.256 25.834-15.479 13.956-25.908-1.936-1.7-4.067-3.089-4.736-3.087-.668.002.135.829 1.785 1.838m-18.628 1.908c-1.243 1.586-1.208 1.621.378.378 1.666-1.307 2.195-2.128 1.372-2.128-.207 0-.995.788-1.75 1.75m-2.413 3.317c-.363.586-.445 1.281-.183 1.543s.743-.218 1.069-1.067c.676-1.762.1-2.072-.886-.476M114.272 44c0 2.475.195 3.487.434 2.25.238-1.237.238-3.263 0-4.5-.239-1.237-.434-.225-.434 2.25M186 40.386c0 .212 3.262 2.312 7.25 4.666 20.331 12.002 37.977 31.024 48.463 52.242 8.631 17.464 12.708 38.421 9.975 51.27-1.843 8.663-4.712 14.936-9.263 20.252-4.137 4.834-3.038 6.497 1.252 1.895 18.333-19.66 12.934-60.695-12.46-94.711-6.385-8.553-20.746-22.327-28.717-27.544-8.411-5.506-16.5-9.462-16.5-8.07m-41.396 16.24c-7.691 9.248-20.97 9.943-29.165 1.526l-3.06-3.144-4.602 2.918c-4.097 2.599-9.857 10.092-9.733 12.662.025.502.891-.689 1.926-2.647 2.184-4.131 7.567-9.659 10.228-10.504 1.17-.371 3.014.407 5.071 2.141C119.712 63.325 124.109 65 129.5 65c6.175 0 10.997-2.197 15.403-7.017l3.681-4.027 2.77 2.891c2.288 2.389 2.498 2.996 1.208 3.491-.859.33-1.562.163-1.562-.369 0-1.246-2.727-1.269-3.167-.028-.183.518-1.68 1.183-3.326 1.478-1.646.295-3.146.997-3.333 1.559-.187.562-.978 1.022-1.757 1.022-.78 0-1.417.635-1.417 1.412 0 .916-.886 1.315-2.524 1.135-1.389-.153-2.741.073-3.006.501-.264.428-2.249 1.077-4.411 1.442-2.578.436-4.476 1.498-5.517 3.087-1.741 2.656-3.823 3.318-2.904.923.374-.974-.025-1.5-1.138-1.5s-1.512.526-1.138 1.5c.35.914.001 1.5-.893 1.5-.808 0-1.469.432-1.469.961 0 1.449 4.171 5.039 5.855 5.039.813 0 1.205.273.871.608-.334.334-3.406-.791-6.827-2.5-3.42-1.71-6.934-3.101-7.809-3.092-.874.009 1.785 1.697 5.91 3.75l7.5 3.734 4.703-2.368c6.378-3.211 12.401-3.756 18.629-1.688 7.386 2.453 9.791 4.771 11.753 11.328 1.988 6.639 2.286 23.1.501 27.617-1.465 3.705-.793 4.304 2.446 2.182 5.18-3.394 10.121-20.352 9.053-31.071-.329-3.3-1.51-8.749-2.626-12.109-2.374-7.149-7.553-15.76-8.959-14.891-.537.332-.73-.039-.428-.826.481-1.254-6.031-7.812-7.55-7.602-.287.04-1.825 1.639-3.418 3.554M97 73.028c0 .784 6.933 2.372 7.571 1.735.201-.202-1.42-.843-3.603-1.426-2.182-.582-3.968-.722-3.968-.309M127 77c-.825.533-1.05.969-.5.969s1.675-.436 2.5-.969c.825-.533 1.05-.969.5-.969s-1.675.436-2.5.969M11.102 85.537C3.239 94.493.377 105.285 1.346 122.325c.852 14.971 3.108 22.688 11.517 39.393 11.489 22.823 35.667 47.075 52.887 53.05 4.265 1.48 4.108.905-.5-1.832C49.535 203.604 37.862 193.76 28.565 182c-18.487-23.386-26.507-45.174-25.304-68.749.456-8.927.958-11.254 3.577-16.573 1.675-3.403 4.422-7.729 6.104-9.613C14.624 85.181 16 83.271 16 82.82c0-1.741-1.919-.676-4.898 2.717M173.158 86c0 1.375.227 1.938.504 1.25.278-.687.278-1.812 0-2.5-.277-.687-.504-.125-.504 1.25M192 88.378c0 .207.787.995 1.75 1.75 1.586 1.243 1.621 1.208.378-.378-1.307-1.666-2.128-2.195-2.128-1.372M173.195 98.5c.02 1.65.244 2.204.498 1.231.254-.973.237-2.323-.037-3-.274-.677-.481.119-.461 1.769M172 107.378c0 .207.787.995 1.75 1.75 1.586 1.243 1.621 1.208.378-.378-1.307-1.666-2.128-2.195-2.128-1.372m59.69 3.122c.332 1.65 1.195 5.25 1.919 8 5.305 20.148 3.697 47.459-4.122 70-10.079 29.053-30.801 49.5-50.169 49.5-2.577 0-4.318.462-4.318 1.145 0 .81 2.106.969 7.194.542 25.886-2.17 49.265-34.14 55.349-75.687 2.701-18.446.78-41.063-4.434-52.187-1.633-3.484-1.905-3.736-1.419-1.313m-35.69 7c1.866 1.925 3.617 3.5 3.892 3.5.275 0-1.026-1.575-2.892-3.5-1.866-1.925-3.617-3.5-3.892-3.5-.275 0 1.026 1.575 2.892 3.5m-13.921 5.083c.048 1.165.285 1.402.604.605.289-.722.253-1.585-.079-1.917-.332-.332-.568.258-.525 1.312m1.116 5.917c.02 1.65.244 2.204.498 1.231.254-.973.237-2.323-.037-3-.274-.677-.481.119-.461 1.769m-1.116 6.083c.048 1.165.285 1.402.604.605.289-.722.253-1.585-.079-1.917-.332-.332-.568.258-.525 1.312m-2.674 4.667-1.905 2.25 2.25-1.905c2.114-1.79 2.705-2.595 1.905-2.595-.19 0-1.202 1.012-2.25 2.25M194 143.227c-3.575 3.376-5.15 5.193-3.5 4.039 2.902-2.03 11.371-10.311 10.453-10.222-.249.025-3.378 2.807-6.953 6.183m-22.559 1.328c-1.864 1.494-1.852 1.512.309.465 1.238-.6 2.25-1.3 2.25-1.555 0-.765-.519-.544-2.559 1.09M164 148c-.825.533-1.05.969-.5.969s1.675-.436 2.5-.969c.825-.533 1.05-.969.5-.969s-1.675.436-2.5.969m-9.411 2.856c-.291.47.583.643 1.941.383 1.359-.26 2.47-.645 2.47-.856 0-.773-3.899-.356-4.411.473M183 151c-.901.582-1.025.975-.309.985.655.008 1.469-.435 1.809-.985.767-1.242.421-1.242-1.5 0m-70.948 1.903c-3.825 7.147 2.819 25.271 12.863 35.086 8.536 8.342 17.783 12.756 30.335 14.481l4.75.653v-4.594c0-6.196 1.896-10.309 6.787-14.722 4.49-4.052 8.893-5.329 15.723-4.559 4.226.477 4.446.365 6.084-3.088 1.963-4.137 2.315-15.593.578-18.838l-1.121-2.096-3.965 1.961c-4.687 2.32-13.516 4.784-17.196 4.801-2.111.01-3.256 1.108-6 5.757-5.081 8.61-16.196 14.65-23.56 12.802-4.536-1.139-16.534-14.139-20.606-22.328-3.195-6.426-3.744-7.05-4.672-5.316m35.254.629c1.543 1.357 3.793 2.429 5 2.382 1.923-.075 1.864-.185-.478-.893-5.005-1.511-5.563-2.466-1.828-3.133 3.394-.606 3.363-.628-1-.725l-4.5-.1 2.806 2.469M173 154.578l-4.5 1.382 4-.571c2.2-.315 4.675-.967 5.5-1.45 2.079-1.217.309-.991-5 .639m-13.25 2.128c1.238.238 3.262.238 4.5 0 1.238-.239.225-.434-2.25-.434s-3.488.195-2.25.434M15.515 176.952c-.953 3.004 1.188 12.904 4.066 18.795 9.157 18.746 33.056 34.009 63.919 40.821 9.855 2.176 32.667 2.99 42.236 1.509 8.96-1.388 21.04-4.906 21.962-6.397.372-.602-.005-.776-.919-.425-2.473.949-13.753 3.575-20.213 4.706-18.427 3.226-46.995-.523-66.066-8.67-25.256-10.789-42.5-29.356-42.5-45.76 0-5.567-1.37-8.091-2.485-4.579m156.703 7.711c-10.78 5.314-10.684 22.029.158 27.277 8.017 3.881 15.165 1.795 20.439-5.964 2.975-4.377 2.693-12.05-.614-16.694-4.189-5.883-13.195-7.964-19.983-4.619m37.207 11.066c-7.129 11.705-25.068 30.376-36.037 37.507-21.218 13.796-37.588 19.312-56.888 19.17-14.267-.105-20.525-2.046-29.091-9.023-5.969-4.862-7.422-4.018-1.957 1.136 11.554 10.897 33.663 13.42 56.042 6.395 10.055-3.156 21.644-8.481 29.673-13.634 18.545-11.9 37.749-32.869 43.074-47.03.879-2.338 1.488-4.25 1.354-4.25-.134 0-2.911 4.378-6.17 9.729" fill="#1976D2" fill-rule="evenodd"/></svg>